<svg width="13" height="12" viewBox="0 0 13 12" fill="none" xmlns="http://www.w3.org/2000/svg">
<g clip-path="url(#clip0_1605:283)">
<path d="M6.50043 11.9995C3.1919 11.9995 0.500885 9.30943 0.500885 6.0009C0.500885 2.69236 3.1919 0 6.50043 0C9.80897 0 12.4986 2.69461 12.4986 6.0009C12.4972 7.59132 11.8648 9.11621 10.7403 10.2409C9.6157 11.3655 8.09086 11.998 6.50043 11.9995ZM6.50043 0.923802C5.49695 0.924424 4.51618 1.22253 3.68209 1.78044C2.848 2.33835 2.19803 3.13102 1.81434 4.05825C1.43065 4.98548 1.33047 6.00565 1.52646 6.98981C1.72245 7.97396 2.2058 8.87792 2.91544 9.58743C3.62507 10.2969 4.52911 10.7801 5.5133 10.9759C6.4975 11.1718 7.51765 11.0714 8.44481 10.6875C9.37197 10.3037 10.1645 9.65358 10.7223 8.81939C11.2801 7.9852 11.578 7.00438 11.5784 6.0009C11.5771 4.65461 11.0417 3.36386 10.0896 2.41198C9.13757 1.46009 7.84672 0.924872 6.50043 0.923802Z" fill="white"/>
<path d="M4.45299 3.25195V8.77591H3.39132V4.2045H3.03787V3.25195H4.45299Z" fill="white"/>
<path d="M5.77693 5.78758C5.27933 5.61916 5.02199 5.14401 5.02199 4.61991C5.02199 3.80704 5.56406 3.16302 6.40702 3.16302C7.24999 3.16302 7.78756 3.80704 7.78756 4.61991C7.78756 5.14222 7.53561 5.60793 7.02993 5.79476V5.7997C7.72019 6.02111 7.98966 6.57171 7.98966 7.26826C7.98966 8.17769 7.33082 8.86347 6.40702 8.86347C5.48322 8.86347 4.8172 8.17769 4.8172 7.26826C4.8172 6.55734 5.08666 6.0274 5.77693 5.7997V5.78758ZM5.93906 7.12859C5.93906 7.41602 6.02034 7.91317 6.39983 7.91317C6.77933 7.91317 6.87005 7.39985 6.87005 7.12859C6.87005 6.85734 6.75058 6.33009 6.3931 6.33009C6.02034 6.33009 5.93906 6.84431 5.93906 7.12859ZM6.38457 5.23204C6.72184 5.23204 6.72184 4.81482 6.72184 4.60778C6.72184 4.40973 6.68457 4.02395 6.38457 4.02395C6.12229 4.02395 6.08636 4.40344 6.08636 4.60105C6.08591 4.81482 6.11511 5.23204 6.38457 5.23204Z" fill="white"/>
<path d="M8.9961 3.16486H9.58352V4.16725H10.4871V4.75513H9.58352V5.78806H8.9961V4.75513H8.0943V4.16725H8.9961V3.16486Z" fill="white"/>
</g>
<defs>
<clipPath id="clip0_1605:283">
<rect width="11.9978" height="12" fill="white" transform="translate(0.500885)"/>
</clipPath>
</defs>
</svg>
