<svg width="13" height="12" viewBox="0 0 13 12" fill="none" xmlns="http://www.w3.org/2000/svg">
<g clip-path="url(#clip0_1605:280)">
<path d="M11.4151 2.55983C10.7348 1.58767 9.78142 0.839128 8.67562 0.4089C7.56982 -0.0213287 6.36125 -0.113911 5.20282 0.142867C4.04439 0.399644 2.98814 0.994243 2.16771 1.85144C1.34728 2.70864 0.799521 3.78992 0.593738 4.95848C0.0192295 8.21508 2.20182 11.3342 5.45842 11.9083C5.80446 11.9686 6.15511 11.9987 6.50637 11.9981C7.60287 11.9963 8.67793 11.6942 9.61477 11.1244C10.5516 10.5546 11.3144 9.73904 11.8204 8.76624C12.3263 7.79343 12.556 6.7006 12.4846 5.60643C12.4131 4.51225 12.0432 3.45857 11.4151 2.55983ZM8.50884 10.6636C8.43192 10.4607 8.3237 10.2711 8.18812 10.1017C8.18812 10.1017 8.32288 10.0379 8.35208 10.0231L4.84798 5.02586C4.60845 5.25523 4.38201 5.49787 4.16971 5.75264C3.87414 6.12277 3.76544 6.4143 3.69402 6.50234C3.6226 6.59038 3.60418 6.6627 3.63158 6.72693C3.65898 6.79116 3.95545 7.08628 4.52995 7.36477C5.10446 7.64327 5.24865 7.52019 5.73871 7.76051C5.76072 7.86786 5.86538 8.29144 5.73871 8.45719C5.61204 8.62294 5.34568 8.9513 5.24146 9.26573C5.13725 9.58016 5.14848 10.2539 5.39104 10.5208C5.56398 10.7103 5.61788 10.8266 5.608 10.996C4.65958 10.826 3.77909 10.3898 3.06931 9.73818C2.35953 9.08657 1.84977 8.24649 1.59954 7.31603C1.34931 6.38556 1.36894 5.40312 1.65614 4.48339C1.94333 3.56366 2.48624 2.74462 3.22148 2.12188L8.10458 9.09504L8.91311 10.2508L9.02316 10.4098C8.85665 10.5041 8.68494 10.5888 8.50884 10.6636ZM5.81373 7.22103C5.59767 7.10964 5.43821 6.91559 5.31603 6.83249C5.19385 6.74939 5.10536 6.66719 4.72849 6.52435C5.1112 6.26562 5.2226 6.17308 5.39014 6.01766C5.41844 6.08369 5.78812 6.45697 5.81328 7.22103H5.81373ZM11.4991 6.8828C11.2945 8.05221 10.6862 9.1128 9.78004 9.87976L3.9779 1.59184C4.74364 1.15337 5.61096 0.92337 6.49335 0.924796C6.79073 0.92459 7.08757 0.950292 7.38049 1.00161C8.03707 1.1173 8.66443 1.36121 9.22673 1.71941C9.78903 2.0776 10.2753 2.54307 10.6576 3.08921C11.04 3.63535 11.3111 4.25148 11.4553 4.90239C11.5995 5.5533 11.6141 6.22625 11.4982 6.8828H11.4991Z" fill="white"/>
<path d="M9.47517 4.8009C9.45823 4.98466 9.40801 5.16381 9.32694 5.32959C9.24896 5.49405 9.15731 5.65167 9.05294 5.80078C8.90941 5.73417 8.76992 5.65918 8.6352 5.57619C8.48051 5.48864 8.33525 5.38538 8.20173 5.26805C7.94435 5.03762 7.5841 4.79146 7.43811 4.68141C7.29213 4.57136 7.04463 4.48826 7.02127 4.46491C6.9238 4.36609 6.92514 4.17473 6.93592 4.03863C6.93702 3.97459 6.95521 3.912 6.98862 3.85735C7.02202 3.8027 7.06943 3.75797 7.12593 3.72779C7.25799 3.6411 7.51627 3.68018 7.60566 3.6694C7.69505 3.65862 7.74626 3.60786 7.7476 3.54677C7.74895 3.48568 7.74041 3.38731 7.74311 3.35452C7.74581 3.32173 7.79567 3.33251 7.80914 3.29792C7.83115 3.23953 7.74895 3.20808 7.74895 3.20808C7.78542 3.19621 7.81874 3.17625 7.84642 3.14969C7.86978 3.11645 7.78309 3.09309 7.78039 3.06524C7.85181 3.01493 7.99106 3.00371 8.01846 2.94262C8.04586 2.88153 7.8891 2.71802 7.83879 2.62235C7.78848 2.52667 7.77276 2.54733 7.79881 2.27692C7.82217 2.04784 7.78354 1.86906 7.51537 1.56811C7.18387 1.19573 6.52716 1.22897 6.19926 1.30129C5.87135 1.37361 5.68764 1.91937 5.68764 1.91937C5.68764 1.91937 5.35793 1.7397 5.06641 1.99798C4.89617 2.15025 4.94109 2.39326 4.94109 2.39326L5.67236 3.43852C5.64631 3.33655 5.60903 2.90982 5.65305 2.88602C5.83901 2.79214 6.0645 3.20045 6.11526 3.35677C6.1425 3.45209 6.14764 3.55237 6.13028 3.64998C6.11293 3.74759 6.07353 3.83996 6.01509 3.92004L6.13862 4.10331L9.61846 9.06816C10.5797 7.73947 8.13615 6.62055 8.07101 6.24728C8.14513 6.2877 9.02014 6.63672 9.19398 6.68074C9.36781 6.72476 9.44148 6.71173 9.56501 6.5078C9.69976 6.2895 9.69976 6.2895 9.77702 6.02448C9.85428 5.75946 9.88842 5.56182 9.94906 5.08119C9.99847 4.67962 10.0272 4.50219 10.0438 4.40966C10.1386 4.26816 10.1993 4.14419 10.1786 4.13206L9.94187 3.97035C9.89696 3.85895 9.85518 3.76463 9.82509 3.7525C9.78425 3.73439 9.73813 3.73215 9.69572 3.74621C9.67933 3.75155 9.66409 3.75994 9.6508 3.77091L9.08034 3.40258C9.03907 3.37854 8.99122 3.36828 8.94372 3.37328C8.89622 3.37829 8.85156 3.39831 8.81622 3.43043L8.34547 3.12319C8.32076 3.10612 8.2727 3.13442 8.23137 3.19551C8.19005 3.2566 8.17657 3.31903 8.20128 3.33655L8.66484 3.65323C8.62621 3.76148 8.63609 3.86165 8.69898 3.90567L9.11448 4.18821C9.11472 4.24558 9.13022 4.30186 9.15939 4.35126C9.21285 4.42089 9.49359 4.579 9.52817 4.62437L9.47517 4.8009Z" fill="white"/>
</g>
<defs>
<clipPath id="clip0_1605:280">
<rect width="11.9996" height="12" fill="white" transform="translate(0.501343)"/>
</clipPath>
</defs>
</svg>
