<svg width="13" height="12" viewBox="0 0 13 12" fill="none" xmlns="http://www.w3.org/2000/svg">
<g clip-path="url(#clip0_1605:276)">
<path d="M11.3819 2.55138C10.9328 1.90666 10.3604 1.35731 9.69779 0.93508C9.03516 0.512845 8.29543 0.226092 7.52134 0.0913834C7.17633 0.0317232 6.82684 0.00176265 6.47671 0.00183117C4.98142 0.0040543 3.54119 0.566281 2.43987 1.57771C1.33855 2.58913 0.656017 3.9764 0.526786 5.46609C0.397555 6.95579 0.831 8.43986 1.7417 9.62583C2.6524 10.8118 3.97429 11.6136 5.44686 11.8733C5.79159 11.9327 6.14077 11.9627 6.49059 11.9629C7.5841 11.9615 8.6563 11.6603 9.59061 11.0921C10.5249 10.524 11.2856 9.71049 11.7899 8.7402C12.2941 7.76991 12.5227 6.67993 12.4508 5.58878C12.3789 4.49764 12.0092 3.44709 11.3819 2.55138ZM6.4888 11.0414C6.19236 11.0415 5.89648 11.0159 5.60447 10.9648C4.65774 10.7971 3.77832 10.3633 3.06903 9.71416C2.35975 9.06504 1.84991 8.22742 1.59912 7.29922C1.34833 6.37103 1.36696 5.39062 1.65283 4.47262C1.9387 3.55462 2.47999 2.73697 3.21342 2.11526L8.3685 9.47556L8.8888 10.218L8.99805 10.3765C8.23384 10.8129 7.36886 11.0421 6.4888 11.0414ZM11.4661 6.86064C11.2624 8.02652 10.6558 9.08386 9.75208 9.8481L3.96745 1.58646C4.73118 1.15041 5.59548 0.921214 6.47492 0.921532C6.7718 0.921475 7.06812 0.947094 7.36059 0.9981C8.01517 1.11332 8.64064 1.35639 9.20125 1.7134C9.76187 2.07042 10.2467 2.53439 10.6279 3.07881C11.0092 3.62323 11.2794 4.23744 11.4233 4.88634C11.5671 5.53523 11.5816 6.20611 11.4661 6.86064Z" fill="white"/>
<path d="M4.66283 4.7579H3.73238C3.84208 4.52013 3.9773 4.22819 4.10268 3.9573L3.72297 3.41595C3.52909 3.83819 3.24969 4.44222 3.10327 4.76148C2.9358 4.77707 2.78015 4.85453 2.66672 4.97872C2.55329 5.10291 2.49023 5.26492 2.48984 5.43312V7.64327H3.19014V8.55491C3.19073 8.66161 3.23337 8.76377 3.30882 8.83921C3.38427 8.91466 3.48643 8.95731 3.59312 8.9579H3.95133C4.05821 8.9579 4.16071 8.91544 4.23629 8.83986C4.31186 8.76429 4.35432 8.66179 4.35432 8.55491V7.64551H6.68268L4.66283 4.7579ZM3.77268 6.48715C3.65755 6.48715 3.54501 6.45301 3.44928 6.38905C3.35356 6.32509 3.27895 6.23418 3.23489 6.12782C3.19084 6.02145 3.17931 5.90441 3.20177 5.7915C3.22423 5.67858 3.27967 5.57487 3.36108 5.49346C3.44248 5.41205 3.5462 5.35661 3.65912 5.33415C3.77203 5.31169 3.88907 5.32322 3.99543 5.36728C4.1018 5.41134 4.19271 5.48594 4.25667 5.58167C4.32063 5.67739 4.35477 5.78993 4.35477 5.90506C4.35477 6.05944 4.29344 6.2075 4.18428 6.31666C4.07511 6.42582 3.92706 6.48715 3.77268 6.48715Z" fill="white"/>
<path d="M9.80313 4.76147C9.59403 4.31102 9.12253 3.28385 8.99716 3.0152C8.77955 2.53385 8.43209 2.54147 8.1791 2.54774C8.14552 2.54774 8.1097 2.54774 8.07298 2.54774H7.9185V2.54684C7.9185 2.54684 7.19895 2.54684 6.45029 2.54684C5.82656 2.54684 5.22253 2.54684 5.0394 2.54684L5.44238 3.12087C5.73611 3.12087 6.09701 3.12087 6.45164 3.12087C7.17432 3.12087 7.92253 3.12087 8.07432 3.12087C8.11686 3.12087 8.15626 3.12087 8.19432 3.12087C8.4182 3.1146 8.4182 3.1146 8.47865 3.25251C8.58343 3.48356 8.9385 4.2546 9.17224 4.75968H6.59044L9.50089 8.914C9.56564 8.87994 9.6199 8.8289 9.65784 8.76635C9.69578 8.70379 9.71598 8.63209 9.71626 8.55893V7.6455H10.4175V5.43535C10.4177 5.26659 10.3548 5.10386 10.2411 4.97915C10.1274 4.85444 9.97119 4.77679 9.80313 4.76147ZM9.13149 6.4849C9.01636 6.4849 8.90382 6.45076 8.8081 6.3868C8.71237 6.32284 8.63776 6.23193 8.59371 6.12557C8.54965 6.0192 8.53812 5.90216 8.56058 5.78925C8.58304 5.67633 8.63848 5.57262 8.71989 5.49121C8.8013 5.4098 8.90501 5.35436 9.01793 5.3319C9.13084 5.30944 9.24788 5.32097 9.35424 5.36503C9.46061 5.40909 9.55152 5.48369 9.61548 5.57942C9.67944 5.67514 9.71358 5.78768 9.71358 5.90281C9.71387 5.9794 9.69905 6.0553 9.66996 6.12615C9.64086 6.197 9.59807 6.26141 9.54404 6.3157C9.49001 6.36998 9.42579 6.41307 9.35507 6.44249C9.28436 6.47191 9.20853 6.48708 9.13194 6.48714L9.13149 6.4849Z" fill="white"/>
</g>
<defs>
<clipPath id="clip0_1605:276">
<rect width="12" height="12" fill="white" transform="translate(0.501343)"/>
</clipPath>
</defs>
</svg>
